<svg width="402" height="874" viewBox="0 0 402 874" fill="none" xmlns="http://www.w3.org/2000/svg">
<g clip-path="url(#clip0_121_13510)">
<rect width="402" height="874" fill="url(#paint0_linear_121_13510)"/>
<mask id="mask0_121_13510" style="mask-type:luminance" maskUnits="userSpaceOnUse" x="-123" y="459" width="622" height="415">
<path d="M499 459H-123V873.667H499V459Z" fill="white"/>
</mask>
<g mask="url(#mask0_121_13510)">
<path d="M501.372 800.553H-145.574V874.082H501.372V800.553Z" fill="url(#paint1_linear_121_13510)"/>
<path style="mix-blend-mode:overlay" opacity="0.42" d="M173.769 838.553C289.664 838.553 383.615 832.118 383.615 824.181C383.615 816.243 289.664 809.808 173.769 809.808C57.8742 809.808 -36.0771 816.243 -36.0771 824.181C-36.0771 832.118 57.8742 838.553 173.769 838.553Z" fill="url(#paint2_radial_121_13510)"/>
<path style="mix-blend-mode:screen" fill-rule="evenodd" clip-rule="evenodd" d="M681.669 813.084C681.669 813.084 617.545 813.955 554.765 814.826C512.726 815.406 459.466 816.269 398.759 817.521C385.456 821.311 355.517 828.543 322.302 827.954C293.5 827.448 262.624 823.766 243.839 821.137C149.801 823.094 63.6167 822.389 -1.99184 821.062L-3.41829 822.439L3.78862 822.414C60.6145 821.734 94.0118 823.658 94.5177 824.222C95.007 824.786 44.1689 825.69 23.2282 826.03C14.288 826.179 3.53152 825.557 -5.84824 824.803C-7.69765 824.653 -9.4973 824.496 -11.214 824.346C-17.8902 823.741 -23.4135 823.127 -26.3328 822.787V826.66C-21.3982 826.486 -17.8487 826.37 -17.8487 826.37C-3.23584 825.317 24.24 827.224 22.2413 827.523C20.2426 827.83 -8.10403 830.641 -18.0643 829.837C-20.3118 829.654 -23.4135 829.455 -26.8884 829.256L-107.84 839.133L-151.114 844.731C-57.6816 845.461 66.0715 846.382 189.435 847.286C243.557 838.263 311.115 833.552 356.23 833.552C363.363 833.552 369.931 833.668 375.803 833.909C411.373 835.352 457.641 844.566 479.809 849.384C506.522 849.575 531.427 849.749 553.952 849.907C630.167 850.454 680.906 851.424 680.906 851.424L681.669 813.092V813.084ZM369.666 825.466C395.085 818.11 523.681 817.77 526.177 818.002C528.674 818.226 476.832 825.582 460.378 826.486C443.924 827.39 365.336 826.71 369.657 825.466H369.666ZM212.159 823.318C230.595 823.998 296.386 826.826 294.893 827.73C293.4 828.634 129.408 830.218 129.905 829.538C130.428 828.825 193.706 822.638 212.15 823.318H212.159ZM148.35 831.122L189.717 830.218C189.717 830.218 193.706 831.346 185.222 832.474C176.754 833.61 157.804 833.726 148.341 831.122H148.35ZM150.838 833.61C144.361 834.514 48.1663 833.61 55.1409 832.93C76.1646 830.882 102.993 829.198 114.952 829.986C126.911 830.782 157.323 832.706 150.838 833.61ZM103.989 824.446C122.433 824.562 186.74 823.202 188.232 823.658C189.725 824.106 112.473 828.858 75.584 830.218C38.6953 831.57 -2.17429 830.326 -2.17429 830.326C-0.681488 829.878 85.5443 824.33 103.989 824.446ZM98.4985 842.774C86.0419 843.902 -16.6379 837.566 -16.6379 837.566C29.7136 832.142 97.5033 835.078 103.483 835.302C109.471 835.534 110.963 841.638 98.4985 842.774ZM111.735 835.418C111.735 835.418 179.3 833.61 178.197 834.315C177.094 835.02 148.524 838.08 139.21 838.586C129.905 839.092 109.744 837.326 111.735 835.418ZM349.223 830.326C332.279 833.95 170.783 842.774 168.776 839.606C166.794 836.438 203.177 830.782 203.177 830.782C203.177 830.782 366.166 826.71 349.214 830.326H349.223ZM358.528 830.143C358.528 830.143 351.893 829.986 361.182 828.178C370.495 826.37 436.294 829.538 436.294 829.538C436.294 829.538 373.812 832.706 358.528 830.143ZM464.367 839.606C439.446 839.946 396.188 835.319 404.05 833.27C417.51 829.762 534.645 827.498 543.121 828.634C551.588 829.762 489.28 839.266 464.359 839.606H464.367ZM554.624 821.27C548.744 823.459 536.171 826.76 528.176 827.158C516.706 827.73 448.917 829.712 448.917 828.742C448.917 827.506 537.232 820.125 554.673 819.379C556.315 819.304 557.327 819.296 557.584 819.354C558.497 819.561 557.194 820.308 554.632 821.27H554.624ZM-26.3328 822.049V822.514H-23.3389L-26.3328 822.049Z" fill="url(#paint3_linear_121_13510)"/>
<path d="M-1.4451 764.245C-1.1963 764.162 -0.930928 764.294 -0.847994 764.543C-0.541141 765.497 -0.134767 766.376 0.371127 767.197C0.87702 768.01 1.46585 768.756 2.1459 769.411L2.66009 769.892L3.20745 770.332L3.7714 770.738C3.97044 770.863 4.16119 770.987 4.36023 771.112C4.66708 771.294 4.99052 771.46 5.31396 771.609C4.70025 770.042 4.21923 768.4 3.96214 766.716C3.63041 764.585 3.70506 762.37 4.269 760.297C4.33535 760.04 4.59243 759.866 4.86611 759.907C5.15638 759.949 5.35543 760.222 5.31396 760.513C5.16468 761.508 5.09833 762.495 5.14809 763.482C5.18956 764.469 5.34713 765.447 5.56276 766.409C5.67057 766.882 5.80327 767.355 5.95255 767.819C6.30087 767.363 6.60772 766.865 6.85652 766.335C7.28777 765.414 7.56975 764.386 7.77708 763.316C7.81855 763.092 8.01758 762.934 8.2415 762.934C8.4986 762.934 8.70593 763.15 8.69764 763.407C8.67276 764.527 8.58983 765.679 8.28297 766.84C7.98441 767.977 7.44535 769.063 6.78188 770.033C7.06386 770.68 7.3707 771.319 7.69414 771.957C8.6147 773.732 9.70942 775.441 10.8705 777.108C11.4427 777.945 12.0399 778.75 12.637 779.587C12.836 779.861 13.035 780.143 13.2258 780.425C13.74 778.741 14.3454 777.091 15.0503 775.482C14.843 775.325 14.644 775.167 14.4615 774.993C14.0468 774.603 13.6819 774.18 13.3419 773.732C13.0185 773.276 12.7365 772.803 12.4794 772.314C12.2389 771.825 12.0316 771.311 11.8574 770.796C11.6915 770.282 11.5588 769.751 11.4593 769.221C11.3681 768.69 11.3017 768.159 11.2603 767.637C11.2022 766.583 11.2271 765.538 11.3266 764.527C11.4427 763.374 11.6335 762.246 11.8491 761.143C11.6998 760.853 11.5505 760.554 11.4013 760.272C11.1939 759.866 10.9783 759.468 10.7544 759.061C10.5305 758.663 10.29 758.273 10.066 757.859C9.84212 757.444 9.60991 757.038 9.41087 756.573C9.35281 756.432 9.35281 756.283 9.41916 756.142C9.54356 755.902 9.83383 755.802 10.0826 755.918C10.5636 756.159 10.97 756.49 11.3515 756.855C11.733 757.22 12.0481 757.635 12.3467 758.066C12.3799 758.116 12.4131 758.166 12.4462 758.215C12.7945 756.466 13.0682 754.732 13.0931 752.966C13.0931 752.742 13.2507 752.551 13.4746 752.51C13.7317 752.468 13.9722 752.634 14.0137 752.891C14.3703 754.89 14.279 756.938 14.0966 758.904C13.9141 760.878 13.6405 762.793 13.5741 764.668C13.5658 765.132 13.5492 765.596 13.5658 766.061C13.5824 766.517 13.6073 766.973 13.6571 767.421C13.7068 767.869 13.7732 768.317 13.8561 768.74C13.9473 769.171 14.0717 769.594 14.2044 770.009C14.6191 771.236 15.2577 772.364 16.1036 773.251C17.4139 770.647 18.8901 768.209 20.0678 765.671C20.7147 764.278 21.262 762.851 21.6435 761.392C22.025 759.932 22.2324 758.431 22.1743 756.93C22.1577 756.582 22.4231 756.275 22.7797 756.25C23.1446 756.217 23.4598 756.49 23.4847 756.847C23.6173 758.489 23.4598 760.139 23.1114 761.732C22.7631 763.324 22.2407 764.858 21.6269 766.351C21.4777 766.708 21.3284 767.056 21.1708 767.404C21.6269 767.321 22.0665 767.247 22.4977 767.156C23.2856 766.998 24.0237 766.807 24.7121 766.534C25.3755 766.268 26.0058 765.878 26.5698 765.406C26.8517 765.165 27.1088 764.908 27.3493 764.61C27.5816 764.311 27.7889 763.979 27.9713 763.589V763.573C28.0294 763.482 28.1123 763.407 28.2201 763.382C28.4109 763.332 28.6016 763.457 28.6514 763.648C28.7675 764.137 28.7509 764.668 28.6348 765.173C28.527 765.679 28.3114 766.169 28.0377 766.608C27.4903 767.496 26.6942 768.201 25.7819 768.706C24.8945 769.204 23.9325 769.511 23.0036 769.693C22.0665 769.868 21.1542 769.95 20.2668 769.942C20.1756 769.942 20.0844 769.926 20.0014 769.901C19.1887 771.576 15.2908 781.511 14.7767 784.489C15.2577 784.19 15.747 783.95 16.2197 783.734C17.0324 783.361 17.8286 783.079 18.5418 782.755C19.2468 782.432 19.9351 782.084 20.582 781.644C21.884 780.79 23.0534 779.703 24.032 778.451C25.0189 777.199 25.7902 775.772 26.3707 774.238C26.4454 774.022 26.6527 773.898 26.8766 773.931C27.1337 773.973 27.3079 774.205 27.2664 774.462C27.0093 776.195 26.3873 777.904 25.4502 779.43C25.0023 780.168 24.4881 780.873 23.9159 781.528C24.5213 781.569 25.135 781.545 25.7487 781.478C26.4288 781.395 27.1088 781.238 27.7723 781.014L28.2699 780.831L28.7592 780.624L29.2402 780.392C29.3978 780.301 29.5554 780.218 29.7129 780.135L29.7461 780.118C29.9286 780.019 30.1525 780.052 30.3018 780.201C30.4842 780.383 30.4759 780.682 30.2935 780.864C30.1525 781.005 30.0115 781.146 29.8622 781.279L29.3978 781.661L28.9085 782.017L28.3943 782.341C27.6894 782.747 26.9347 783.079 26.1468 783.303C25.3589 783.535 24.5296 783.668 23.692 783.709H23.0617C22.8544 783.684 22.6387 783.676 22.4314 783.643C22.2241 783.61 22.0167 783.56 21.8094 783.518C21.8011 783.518 21.7928 783.518 21.7845 783.51C21.0879 784.041 20.3332 784.497 19.5536 784.895C18.7492 785.293 17.9613 785.625 17.2481 785.965C16.5265 786.305 15.888 786.662 15.3572 787.101C14.8928 787.474 14.5361 787.889 14.2873 788.337C14.1795 789.755 14.2376 791.074 14.2708 792.492C13.2341 792.069 12.3218 791.455 11.3432 791.09C11.4096 788.08 11.733 786.404 12.3965 783.485C11.791 782.672 11.2022 781.868 10.5968 781.039C9.9831 780.201 9.38599 779.322 8.83034 778.426C7.98442 777.058 7.17996 775.648 6.45844 774.188C6.44186 774.188 6.42526 774.188 6.40867 774.188C5.28078 773.998 4.19436 773.566 3.22404 772.978C2.98353 772.828 2.74302 772.671 2.51081 772.505L1.83905 771.982L1.21705 771.402L0.644808 770.78C-0.085005 769.917 -0.682117 768.955 -1.09678 767.91C-1.51145 766.874 -1.76026 765.771 -1.76855 764.676C-1.76855 764.477 -1.64414 764.294 -1.4451 764.228V764.245Z" fill="#031B47"/>
<path fill-rule="evenodd" clip-rule="evenodd" d="M-255.271 753.687L-236.909 794.217L-235.109 798.206L-218.539 799.101L-217.088 799.176H-216.964L-216.955 799.184L-216.201 799.226L-179.32 801.225L-151.372 802.742L-149 802.867L-138.55 803.439C-138.55 803.439 -138.517 803.439 -138.426 803.447L-130.506 803.878H-130.431L-129.063 803.953C-129.063 803.953 -129.038 803.945 -129.029 803.953L-119.55 804.467H-119.525L-117.833 804.559L-114.118 804.758L-111.97 804.874L-84.3947 806.375L-83.922 806.4L-63.6116 807.494L-55.9485 807.917L-42.447 808.647L-27.2868 809.468L-25.1305 809.584L-17.9899 809.966L9.93369 811.483L10.6552 811.517L48.3733 807.221L35.0791 791.571L35.0708 791.563L35.0128 791.497L34.4654 791.472H34.4073L20.516 790.792L10.3649 790.302L10 790.286L7.84378 790.178L5.05725 790.037L3.20779 789.946L-0.532486 789.763L-0.557373 789.713L-1.66867 787.565L-4.62939 781.768L-4.81184 781.412L-5.83191 779.397L-6.13876 778.808L-19.3335 778.891L-19.4662 778.26L-19.5657 777.796L-19.5988 777.63L-20.1877 774.794L-20.3121 774.213H-20.3867L-46.2785 772.903H-46.4112L-47.083 772.861L-58.8678 772.256H-58.8761L-59.4732 772.231V772.43L-59.44 773.21L-59.4068 774.139V774.537L-59.2576 777.672L-59.2244 778.692L-61.3807 778.484L-61.6626 777.613L-62.832 774.006L-62.8818 773.84L-62.9813 773.55L-63.0808 773.218L-63.114 773.102L-64.1092 770L-64.8639 770.017L-67.7251 770.067L-79.3855 770.307H-79.3938L-80.4056 770.324L-95.4746 770.622L-95.74 770.946L-95.9722 771.236L-100.334 776.56L-100.882 777.224L-100.55 776.552L-97.9045 771.12L-97.7303 770.78L-95.1677 765.505L-92.8788 760.803L-108.843 760.098L-133.201 759.036L-135.929 758.92L-141.959 758.647L-147.283 758.423H-147.54L-147.59 758.406L-155.485 758.066L-180.763 756.963L-184.313 756.805L-213.514 755.537L-221.716 755.18L-255.254 753.72L-255.271 753.687Z" fill="#042156"/>
<path style="mix-blend-mode:multiply" opacity="0.7" fill-rule="evenodd" clip-rule="evenodd" d="M-17.9902 809.966L9.93341 811.483L5.57112 798.629L4.64227 795.892L1.93035 796.074L-0.433256 796.232L-17.6668 797.385L-17.7 798.894L-17.9902 809.966Z" fill="url(#paint4_linear_121_13510)"/>
<path fill-rule="evenodd" clip-rule="evenodd" d="M-206.058 777.414L-173.598 785.426H-173.589L-149.182 791.455C-149.182 791.455 -148.659 791.496 -147.673 791.579H-147.648C-142.813 791.953 -126.972 793.18 -106.927 794.524H-106.919C-104.912 794.665 -102.864 794.797 -100.782 794.938H-100.749C-86.8326 795.85 -71.3407 796.779 -56.3049 797.526C-49.9688 797.833 -43.7073 798.115 -37.6781 798.338C-34.1202 798.471 -30.637 798.596 -27.2699 798.678C-26.8718 798.695 -26.4821 798.703 -26.084 798.712C-23.1979 798.795 -20.3948 798.853 -17.6994 798.894C-13.0303 798.977 -8.68457 799.002 -4.77013 798.952H-4.34715C-0.606857 798.902 2.71877 798.795 5.57167 798.629C6.09415 798.596 6.60832 798.562 7.09764 798.521C33.3875 796.522 35.013 791.82 35.0876 791.571L35.0794 791.563C34.8637 791.53 34.6315 791.496 34.4076 791.463C30.4517 790.874 26.0147 790.319 21.1631 789.771C19.2474 789.556 17.2653 789.34 15.2334 789.133C13.3923 788.942 11.5014 788.76 9.56906 788.561C5.97804 788.221 2.22118 787.889 -1.6684 787.549C-3.72514 787.375 -5.83167 787.201 -7.97964 787.035C-10.0613 786.86 -12.1844 786.695 -14.324 786.537C-15.2861 786.454 -16.2647 786.388 -17.2516 786.313C-22.4183 785.932 -27.7261 785.558 -33.1665 785.194C-33.407 785.177 -33.6558 785.169 -33.9129 785.152C-34.4851 785.111 -35.0574 785.069 -35.6462 785.036C-37.28 784.92 -38.9221 784.82 -40.5807 784.712C-42.2477 784.605 -43.9229 784.505 -45.5982 784.397C-47.3978 784.29 -49.2307 784.182 -51.0552 784.074C-51.7601 784.032 -52.4817 783.983 -53.1866 783.941C-56.1473 783.767 -59.1329 783.601 -62.1185 783.435C-71.1582 782.921 -80.2809 782.448 -89.3206 782.001C-139.031 779.537 -186.071 778.02 -201.09 777.564H-201.098C-204.299 777.464 -206.041 777.414 -206.041 777.414H-206.058Z" fill="#083B9B"/>
<path style="mix-blend-mode:screen" fill-rule="evenodd" clip-rule="evenodd" d="M-4.78711 798.969L-4.33926 798.952L0.0976634 798.819C0.0976634 798.819 4.27751 790.02 15.2164 789.141C13.3753 788.95 11.4927 788.76 9.56036 788.577C5.41369 792.865 -4.33927 798.695 -4.77052 798.96C-4.78711 798.96 -4.78711 798.969 -4.78711 798.969Z" fill="url(#paint5_linear_121_13510)"/>
<path d="M347.878 768.25C347.629 768.167 347.364 768.308 347.281 768.549C346.974 769.503 346.568 770.382 346.062 771.203C345.556 772.016 344.967 772.762 344.287 773.417L343.773 773.898L343.226 774.338L342.662 774.744C342.463 774.868 342.272 774.993 342.073 775.117C341.766 775.3 341.443 775.466 341.119 775.615C341.733 774.047 342.214 772.405 342.471 770.722C342.803 768.59 342.728 766.376 342.164 764.303C342.098 764.046 341.841 763.871 341.567 763.913C341.277 763.954 341.078 764.228 341.119 764.518C341.268 765.514 341.335 766.5 341.285 767.487C341.244 768.474 341.086 769.453 340.87 770.415C340.763 770.888 340.63 771.36 340.481 771.825C340.132 771.369 339.825 770.871 339.577 770.34C339.145 769.42 338.863 768.391 338.656 767.321C338.615 767.098 338.415 766.94 338.192 766.94C337.934 766.94 337.727 767.156 337.735 767.413C337.76 768.532 337.843 769.685 338.15 770.846C338.449 771.982 338.988 773.069 339.651 774.039C339.369 774.686 339.062 775.325 338.739 775.963C337.818 777.738 336.724 779.446 335.563 781.113C334.99 781.951 334.393 782.755 333.796 783.593C333.597 783.867 333.398 784.149 333.207 784.431C332.693 782.747 332.088 781.097 331.383 779.488C331.59 779.33 331.789 779.173 331.972 778.998C332.386 778.609 332.751 778.186 333.091 777.738C333.415 777.282 333.697 776.809 333.954 776.32C334.194 775.83 334.402 775.316 334.576 774.802C334.742 774.288 334.874 773.757 334.974 773.226C335.065 772.696 335.131 772.165 335.173 771.642C335.231 770.589 335.206 769.544 335.106 768.532C334.99 767.38 334.8 766.252 334.584 765.149C334.733 764.858 334.883 764.56 335.032 764.278C335.239 763.871 335.455 763.473 335.679 763.067C335.903 762.669 336.143 762.279 336.367 761.864C336.591 761.45 336.823 761.043 337.022 760.579C337.08 760.438 337.08 760.289 337.014 760.148C336.89 759.907 336.599 759.808 336.35 759.924C335.869 760.164 335.463 760.496 335.082 760.861C334.7 761.226 334.385 761.641 334.086 762.072C334.053 762.122 334.02 762.171 333.987 762.221C333.639 760.471 333.365 758.738 333.34 756.971C333.34 756.747 333.182 756.557 332.958 756.515C332.701 756.474 332.461 756.64 332.419 756.897C332.063 758.895 332.154 760.944 332.336 762.909C332.519 764.883 332.793 766.807 332.859 768.673C332.867 769.138 332.884 769.602 332.867 770.067C332.851 770.523 332.826 770.979 332.776 771.427C332.726 771.875 332.66 772.322 332.577 772.745C332.486 773.177 332.361 773.6 332.229 774.014C331.814 775.242 331.175 776.369 330.329 777.257C329.019 774.653 327.543 772.215 326.365 769.677C325.718 768.283 325.171 766.857 324.79 765.397C324.408 763.938 324.201 762.437 324.259 760.936C324.275 760.587 324.01 760.28 323.653 760.256C323.288 760.222 322.973 760.496 322.948 760.853C322.816 762.495 322.973 764.145 323.322 765.737C323.67 767.33 324.192 768.864 324.806 770.357C324.955 770.713 325.105 771.062 325.262 771.41C324.806 771.327 324.367 771.253 323.935 771.161C323.147 771.004 322.409 770.813 321.721 770.539C321.058 770.274 320.427 769.884 319.872 769.411C319.59 769.171 319.333 768.914 319.092 768.615C318.86 768.317 318.652 767.985 318.47 767.595V767.579C318.412 767.487 318.329 767.413 318.221 767.388C318.03 767.338 317.84 767.462 317.79 767.653C317.674 768.143 317.69 768.673 317.807 769.179C317.914 769.685 318.13 770.174 318.404 770.614C318.951 771.501 319.747 772.206 320.659 772.712C321.547 773.21 322.509 773.517 323.438 773.699C324.375 773.873 325.287 773.956 326.175 773.948C326.266 773.948 326.357 773.931 326.44 773.906C327.253 775.582 331.151 785.517 331.665 788.494C331.184 788.196 330.694 787.955 330.222 787.74C329.409 787.366 328.613 787.084 327.9 786.761C327.195 786.438 326.506 786.089 325.859 785.65C324.557 784.796 323.388 783.709 322.409 782.457C321.422 781.205 320.651 779.778 320.071 778.244C319.996 778.028 319.789 777.904 319.565 777.937C319.308 777.978 319.133 778.211 319.175 778.468C319.432 780.201 320.054 781.909 320.991 783.435C321.439 784.174 321.953 784.878 322.525 785.534C321.92 785.575 321.306 785.55 320.693 785.484C320.013 785.401 319.333 785.243 318.669 785.019L318.171 784.837L317.682 784.63L317.201 784.397C317.044 784.306 316.886 784.223 316.728 784.14L316.695 784.124C316.513 784.024 316.289 784.057 316.14 784.207C315.957 784.389 315.965 784.688 316.148 784.87C316.289 785.011 316.43 785.152 316.579 785.285L317.044 785.666L317.533 786.023L318.047 786.346C318.752 786.753 319.507 787.084 320.303 787.308C321.091 787.541 321.92 787.673 322.758 787.715H323.388C323.595 787.69 323.811 787.682 324.018 787.648C324.226 787.615 324.433 787.566 324.64 787.524C324.649 787.524 324.657 787.524 324.665 787.516C325.362 788.047 326.116 788.503 326.896 788.901C327.7 789.299 328.488 789.631 329.202 789.971C329.923 790.311 330.562 790.667 331.092 791.107C331.557 791.48 331.914 791.895 332.162 792.342C332.27 793.761 332.212 795.079 332.179 796.497C333.216 796.074 334.128 795.461 335.106 795.096C335.04 792.085 334.717 790.41 334.053 787.491C334.659 786.678 335.247 785.874 335.853 785.044C336.467 784.207 337.064 783.328 337.619 782.432C338.465 781.064 339.27 779.654 339.991 778.194C340.008 778.194 340.024 778.194 340.041 778.194C341.169 778.003 342.255 777.572 343.234 776.983C343.474 776.834 343.715 776.676 343.947 776.51L344.619 775.988L345.241 775.407L345.813 774.785C346.543 773.923 347.14 772.961 347.555 771.916C347.969 770.879 348.218 769.776 348.227 768.682C348.227 768.483 348.102 768.3 347.903 768.234L347.878 768.25Z" fill="#031B47"/>
<path fill-rule="evenodd" clip-rule="evenodd" d="M598.487 759.41L580.125 799.939L578.326 803.928L561.755 804.824L560.304 804.907H560.18L560.171 804.915L559.417 804.957L522.536 806.955L494.588 808.473L492.216 808.597L481.766 809.17C481.766 809.17 481.733 809.17 481.642 809.178L473.722 809.609H473.647L472.279 809.692C472.279 809.692 472.254 809.684 472.245 809.692L462.766 810.206H462.741L461.049 810.297L457.334 810.496L455.186 810.613L427.611 812.114L427.138 812.139L406.828 813.233L399.165 813.656L385.663 814.386L370.503 815.207L368.347 815.323L361.206 815.705L333.282 817.222L332.561 817.256L294.843 812.96L308.137 797.31L308.145 797.302L308.203 797.235L308.751 797.211H308.809L322.7 796.53L332.851 796.041L333.216 796.025L335.372 795.917L338.159 795.776L340.008 795.685L343.749 795.502L343.773 795.452L344.885 793.304L347.845 787.507L348.028 787.151L349.048 785.135L349.355 784.547L362.55 784.63L362.682 783.999L362.782 783.535L362.815 783.369L363.404 780.533L363.528 779.952H363.603L389.495 778.642H389.627L390.299 778.6L402.084 777.995H402.092L402.689 777.97V778.169L402.656 778.949L402.623 779.877V780.276L402.474 783.41L402.44 784.431L404.597 784.223L404.879 783.352L406.048 779.745L406.098 779.579L406.197 779.289L406.297 778.957L406.33 778.841L407.325 775.739L408.08 775.756L410.941 775.805L422.602 776.046H422.61L423.622 776.063L438.691 776.361L438.956 776.685L439.188 776.975L443.551 782.299L444.098 782.963L443.766 782.291L441.121 776.859L440.946 776.519L438.384 771.244L436.095 766.542L452.06 765.837L476.417 764.775L479.146 764.659L485.175 764.386L490.499 764.162H490.756L490.806 764.145L498.701 763.805L523.979 762.702L527.529 762.544L556.73 761.276L564.932 760.919L598.47 759.459L598.487 759.41Z" fill="#042156"/>
<path style="mix-blend-mode:multiply" opacity="0.7" fill-rule="evenodd" clip-rule="evenodd" d="M545.384 779.496L546.255 783.162L375.611 793.985L378.141 784.041L545.384 779.496Z" fill="url(#paint6_linear_121_13510)"/>
<path fill-rule="evenodd" clip-rule="evenodd" d="M569.742 765.165L568.191 766.077L562.925 769.171L552.956 775.034L545.376 779.496L458.338 786.139C458.338 786.139 447.971 786.487 433.118 786.711C424.542 786.844 414.474 786.927 404.058 786.869C399.53 786.852 394.935 786.802 390.349 786.72C389.86 786.711 389.387 786.703 388.898 786.695C388.898 786.695 388.898 786.686 388.889 786.695C385.066 786.612 381.251 786.52 377.536 786.388C375.57 786.321 373.638 786.247 371.722 786.164C370.553 786.114 369.383 786.056 368.222 785.998C367.658 785.973 367.111 785.94 366.564 785.907C360.277 785.567 354.43 785.111 349.347 784.53L361.397 783.469L362.351 783.377L362.815 783.336L365.187 783.137L372.717 782.473L386.012 781.304L387.081 781.204L391.41 780.831L402.606 779.853L406.081 779.546L406.936 779.463L409.871 779.206H409.896L414.839 778.766H414.872L414.997 778.75H415.005L422.104 778.128L432.554 777.207H432.628L438.94 776.651L440.938 776.469L446.727 775.963L466.913 774.197L478.449 773.185L482.811 772.803L497.98 771.468H498.013L505.643 770.796L516.897 769.809L517.079 769.793L527.189 768.905L563.738 765.696L569.709 765.173L569.742 765.165Z" fill="#083B9B"/>
<path fill-rule="evenodd" clip-rule="evenodd" d="M402.689 777.929L402.175 777.978L394.512 778.775L389.337 779.305L388.616 779.372L385.605 779.687L378.025 780.466L376.914 780.582C369.856 781.08 365.618 781.039 363.984 780.682C363.719 780.624 363.537 780.558 363.396 780.491C363.114 780.325 363.163 780.135 363.52 779.911C363.528 779.902 363.553 779.886 363.578 779.886C364.689 779.33 371.548 778.401 378.564 777.746C382.984 777.323 387.479 777.016 390.639 777C391.245 776.983 391.817 776.991 392.323 777.008C392.422 777.008 392.522 777.016 392.613 777.016C396.801 777.166 399.571 777.456 401.114 777.672C402.076 777.796 402.573 777.887 402.673 777.92L402.689 777.929Z" fill="#083B9B"/>
<path style="mix-blend-mode:multiply" opacity="0.7" fill-rule="evenodd" clip-rule="evenodd" d="M361.206 815.688L333.282 817.206L337.645 804.351L338.573 801.606L341.285 801.789L343.649 801.946L360.874 803.107L360.916 804.608L361.206 815.688Z" fill="url(#paint7_linear_121_13510)"/>
<path style="mix-blend-mode:multiply" opacity="0.7" fill-rule="evenodd" clip-rule="evenodd" d="M370.503 815.191L368.347 815.298L369.3 804.426L369.342 803.804L370.478 803.771V804.393L370.503 815.191Z" fill="url(#paint8_linear_121_13510)"/>
<path fill-rule="evenodd" clip-rule="evenodd" d="M549.274 783.137L516.814 791.148H516.806L492.398 797.177C492.398 797.177 491.876 797.219 490.889 797.302H490.864C486.029 797.675 470.189 798.902 450.144 800.246H450.136C448.129 800.387 446.08 800.52 443.999 800.661H443.965C430.049 801.573 414.557 802.502 399.521 803.248C393.185 803.555 386.924 803.837 380.895 804.061C377.337 804.194 373.854 804.318 370.486 804.401C370.088 804.417 369.699 804.426 369.301 804.434C366.414 804.517 363.611 804.575 360.916 804.617C356.247 804.699 351.901 804.724 347.987 804.675H347.564C343.823 804.625 340.498 804.517 337.645 804.351C337.122 804.318 336.608 804.285 336.119 804.243C309.829 802.245 308.204 797.542 308.129 797.294L308.137 797.285C308.353 797.252 308.585 797.219 308.809 797.186C312.765 796.597 317.202 796.041 322.053 795.494C323.969 795.278 325.951 795.063 327.983 794.855C329.824 794.665 331.715 794.482 333.648 794.283C337.239 793.943 340.995 793.611 344.885 793.271C346.942 793.097 349.048 792.923 351.196 792.757C353.278 792.583 355.401 792.417 357.541 792.259C358.503 792.185 359.481 792.11 360.468 792.036C365.635 791.654 370.943 791.281 376.383 790.916C376.624 790.899 376.872 790.891 377.129 790.874C377.702 790.833 378.274 790.792 378.863 790.758C380.497 790.642 382.139 790.543 383.797 790.435C385.464 790.327 387.14 790.228 388.815 790.12C390.614 790.012 392.447 789.904 394.272 789.796C394.977 789.755 395.698 789.705 396.403 789.664C399.364 789.489 402.349 789.324 405.335 789.158C414.375 788.644 423.497 788.171 432.537 787.723C482.247 785.26 529.287 783.742 544.306 783.286H544.315C547.516 783.187 549.258 783.137 549.258 783.137H549.274Z" fill="#083B9B"/>
<path style="mix-blend-mode:screen" d="M560.163 804.907L559.409 804.948L523.938 806.773L494.571 808.44L491.345 808.622C491.345 808.622 491.428 797.368 490.881 797.294H490.856C490.309 797.211 489.72 797.177 489.139 797.177C485.084 797.177 480.224 798.712 474.518 797.501C461.663 794.772 446.644 791.397 436.029 790.153C434.362 789.962 432.803 789.821 431.376 789.738C427.793 789.548 425.057 789.747 423.58 790.535C423.34 790.667 423.116 790.816 422.958 790.982C422.486 791.414 422.278 791.969 422.37 792.658C422.867 796.439 435.946 798.231 450.127 800.238H450.136C455.692 801.026 458.346 802.56 460.494 804.26C462.642 805.96 464.259 807.834 467.742 809.286C468.464 809.584 470.529 809.651 472.859 809.609C472.669 809.626 472.47 809.642 472.262 809.667C472.254 809.659 472.237 809.659 472.229 809.667C468.257 810.032 464.309 810.414 462.75 810.181H462.725C462.625 810.165 462.526 810.148 462.46 810.132C451.264 807.229 459.109 801.183 443.99 800.644H443.957C442.871 800.603 441.701 800.586 440.474 800.578C424.078 800.47 428.838 794.507 415.171 793.305C415.088 793.296 414.988 793.288 414.881 793.28C412.849 793.122 410.411 793.056 407.45 793.13C405.294 793.18 403.121 793.139 400.956 793.006C399.579 792.923 398.203 792.807 396.834 792.658C396.809 792.658 396.776 792.658 396.751 792.649C392.315 792.168 387.944 791.38 383.797 790.435C382.246 790.087 380.729 789.705 379.261 789.324C378.481 789.125 377.71 788.909 376.955 788.702C376.483 788.569 376.002 788.436 375.545 788.304C373.19 787.615 370.976 786.91 368.952 786.23C368.712 786.147 368.463 786.064 368.231 785.981C367.551 785.741 366.904 785.517 366.265 785.293C364.947 784.829 363.752 784.381 362.682 783.966C362.235 783.792 361.803 783.618 361.405 783.46L362.359 783.369L362.367 783.377C362.5 783.411 362.649 783.46 362.782 783.502C363.719 783.8 364.756 784.115 365.85 784.447C367.625 784.995 369.616 785.559 371.722 786.147C373.48 786.628 375.33 787.118 377.229 787.59C378.141 787.831 379.078 788.055 380.016 788.27C380.256 788.328 380.505 788.387 380.745 788.436C383.391 789.058 386.119 789.639 388.798 790.112C388.798 790.112 388.806 790.114 388.823 790.12H388.831C391.112 790.535 393.359 790.875 395.541 791.115C396.685 791.248 397.805 791.356 398.899 791.422C400.981 791.579 402.955 791.613 404.771 791.53C406.894 791.422 409.034 791.264 411.182 791.082C418.148 790.493 425.173 789.631 431.625 789.257C436.377 788.992 440.839 788.992 444.762 789.589C446.843 789.896 448.759 790.377 450.501 791.057C477.96 801.905 505.452 788.022 516.781 791.123H516.806C518.522 791.604 519.302 792.376 518.804 793.537C517.735 795.992 537.713 803.397 560.147 804.89L560.163 804.907Z" fill="url(#paint9_linear_121_13510)"/>
<path fill-rule="evenodd" clip-rule="evenodd" d="M489.014 812.943L481.749 821.187L465.262 823.21L405.583 827.233L403.319 830.633C403.319 830.633 358.693 834.224 346.543 831.238L343.814 823.857L374.616 824.363L374.4 822.414L373.778 816.941L414.971 815.514L415.602 815.489L427.204 815.083L433.026 814.884L464.317 813.797L465.403 813.764L488.906 812.943H489.014Z" fill="#042156"/>
<path fill-rule="evenodd" clip-rule="evenodd" d="M489.147 812.893L488.906 812.943L473.638 816.459H473.63L473.091 816.584L471.706 816.858L463.985 818.359C463.985 818.359 461.489 818.508 457.317 818.715C455.393 818.815 453.129 818.923 450.583 819.039C444.122 819.337 435.912 819.661 427.237 819.868H427.229C405.019 820.415 379.874 820.216 373.795 816.949C373.795 816.949 377.95 815.754 385.671 814.361C387.255 814.071 388.997 813.772 390.887 813.474C394.313 812.943 398.219 812.396 402.581 811.906C409.357 811.143 417.21 810.497 426.068 810.165C426.582 810.148 427.104 810.132 427.627 810.115C429.957 810.032 432.354 809.982 434.817 809.949C441.626 809.858 447.796 809.908 453.345 810.04C454.456 810.065 455.551 810.098 456.62 810.132C458.155 810.173 459.631 810.231 461.041 810.289C481.169 811.119 489.147 812.902 489.147 812.902V812.893Z" fill="#083B9B"/>
<path fill-rule="evenodd" clip-rule="evenodd" d="M406.007 824.28C406.007 824.28 375.719 826.494 367.534 826.138C359.348 825.781 343.823 823.857 343.823 823.857C353.775 822.597 364.606 822.298 374.401 822.422C391.858 822.663 406.007 824.28 406.007 824.28Z" fill="#083B9B"/>
<path style="mix-blend-mode:screen" fill-rule="evenodd" clip-rule="evenodd" d="M348.003 804.683L347.555 804.666L343.118 804.534C343.118 804.534 338.938 795.734 327.999 794.855C329.84 794.665 331.723 794.474 333.655 794.291C337.802 798.579 347.555 804.409 347.986 804.675C348.003 804.675 348.003 804.683 348.003 804.683Z" fill="url(#paint10_linear_121_13510)"/>
<path style="mix-blend-mode:screen" fill-rule="evenodd" clip-rule="evenodd" d="M381.044 803.812C384.278 799.16 371.067 794.839 357.549 792.26C358.511 792.185 359.489 792.11 360.468 792.036C371.847 795.56 389.279 800.487 399.513 803.232C393.177 803.547 386.916 803.82 380.886 804.053C380.928 803.97 380.986 803.895 381.044 803.812Z" fill="url(#paint11_linear_121_13510)"/>
<path style="mix-blend-mode:screen" fill-rule="evenodd" clip-rule="evenodd" d="M457.309 818.715C455.393 818.815 453.121 818.923 450.575 819.039C444.504 816.542 429.858 815.663 427.42 816.891C426.085 817.563 426.474 818.773 427.237 819.86C427.237 819.868 427.246 819.876 427.254 819.885C427.237 819.885 427.229 819.868 427.221 819.868C425.123 818.632 413.694 812.653 389.893 813.698L390.888 813.482C394.313 812.943 398.219 812.404 402.581 811.915C409.108 814.005 420.661 817.33 425.148 816.319C428.714 815.506 427.685 812.595 426.076 810.173C426.591 810.157 427.113 810.14 427.636 810.115C424.401 814.892 444.363 817.529 457.326 818.715H457.309Z" fill="url(#paint12_linear_121_13510)"/>
<g opacity="0.61">
<g style="mix-blend-mode:multiply">
<path d="M10.6805 864.586C18.0089 864.586 23.9498 863.286 23.9498 861.683C23.9498 860.08 18.0089 858.78 10.6805 858.78C3.35202 858.78 -2.58887 860.08 -2.58887 861.683C-2.58887 863.286 3.35202 864.586 10.6805 864.586Z" fill="#02C4D1"/>
</g>
<g style="mix-blend-mode:multiply">
<path d="M276.481 859.568C276.481 860.522 272.948 861.293 268.586 861.293C264.223 861.293 260.69 860.522 260.69 859.568C260.69 858.614 264.223 857.843 268.586 857.843C272.948 857.843 276.481 858.614 276.481 859.568Z" fill="#02C4D1"/>
</g>
<g style="mix-blend-mode:multiply">
<path d="M153.715 862.156C153.715 863.109 150.182 863.881 145.82 863.881C141.458 863.881 137.925 863.109 137.925 862.156C137.925 861.202 141.458 860.431 145.82 860.431C150.182 860.431 153.715 861.202 153.715 862.156Z" fill="#02C4D1"/>
</g>
<g style="mix-blend-mode:multiply">
<path d="M370.221 863.557C376.024 863.557 380.728 862.529 380.728 861.26C380.728 859.991 376.024 858.963 370.221 858.963C364.417 858.963 359.713 859.991 359.713 861.26C359.713 862.529 364.417 863.557 370.221 863.557Z" fill="#02C4D1"/>
</g>
</g>
</g>
<g opacity="0.65">
<path d="M216.379 743.468L131.017 675.169C128.936 669.465 125.105 663.137 118.018 658.829L121.714 658.645L121.665 657.739L96.8917 658.988L92.828 639L95.5943 659.049L76.5488 660.016L76.5978 660.922L80.8573 660.702C81.4815 661.668 90.8574 676.491 85.7166 686.503C85.7166 686.503 85.7288 686.503 85.741 686.516C84.5293 688.278 82.779 689.857 80.3555 691.118C81.4448 690.555 83.9785 689.319 87.5526 687.984C87.6015 688.021 87.6382 688.058 87.6872 688.095C87.9565 688.29 88.2258 688.474 88.495 688.67C91.7509 687.544 95.7167 686.406 100.148 685.61L100.968 689.894L90.943 690.396C90.943 690.396 91.0532 690.481 91.1144 690.518L80.7104 691.044L80.7594 691.95L93.1952 691.326C93.1952 691.326 93.0851 691.253 93.0239 691.204L101.151 690.787L101.91 694.704L97.9199 694.876L97.9688 695.781C98.1647 695.928 98.3482 696.075 98.5563 696.21L102.167 696.002L102.608 698.278C102.706 698.315 102.804 698.34 102.902 698.376L109.731 736.565C109.572 737.177 109.413 737.777 109.266 738.389C108.973 739.65 108.716 740.91 108.385 742.171C108.079 743.346 107.736 744.521 107.406 745.684L111.739 745.61L112.485 749.466L106.341 749.564C106.219 750.017 106.121 750.482 106.01 750.935L112.755 750.837L113.746 755.941C111.151 756.1 108.593 756.247 106.108 756.345C105.962 756.528 105.815 756.7 105.668 756.883C104.468 758.45 103.428 760.115 102.485 761.792C101.739 763.126 101.041 764.472 100.343 765.819L161.299 762.734L162.106 751.547L219.867 744.166L219.818 743.101L216.403 743.456L216.379 743.468ZM109.964 759.65L109.793 757.226L112.608 757.043L112.779 759.466L109.964 759.65ZM181.813 717.054L208.973 738.793C196.954 731.73 175.705 720.506 157.688 711.167L181.813 717.054ZM102.155 685.279C111.323 683.872 122.277 683.97 133.293 688.254L103.134 689.784L102.155 685.279ZM103.318 690.69L135.264 689.074L135.215 688.168L133.453 688.254C133.453 687.617 133.428 682.77 131.592 676.895L134.591 679.294L132.963 678.021L148.483 706.43C135.558 699.784 125.974 694.937 125.705 694.802L125.374 694.631L139.205 693.811L139.169 693.162L123.746 693.811L123.281 693.578L123.501 693.823L104.15 694.631L103.305 690.702L103.318 690.69ZM111.665 729.246C111.567 729.6 111.47 729.968 111.384 730.323C111.359 730.249 111.347 730.176 111.323 730.102C111.225 729.735 111.519 729.368 111.616 728.988L105.141 699.086L104.444 695.843L111.849 695.402C113.82 700.029 127.222 733.04 116.61 752.073L111.665 729.221V729.246ZM121.188 759.062L121.053 756.639L123.869 756.48L124.003 758.903L121.188 759.062ZM131.225 758.56L131.09 756.137L133.905 755.978L134.04 758.401L131.225 758.56ZM141.788 757.801L141.653 755.378L144.469 755.219L144.603 757.642L141.788 757.801ZM140.894 751.351L140.992 753.248C132.804 754.35 124.909 755.133 117.381 755.672L116.72 752.636C119.401 750.825 129.499 745.353 153.624 745.023C154.713 746.81 155.583 748.426 156.146 749.76L140.882 751.351H140.894ZM157.247 749.637C155.179 744.619 148.814 735.733 143.049 728.205C140.099 724.227 136.684 719.87 132.951 715.5C132.706 715.206 132.535 714.998 132.473 714.925C126.402 707.874 119.487 700.836 112.302 695.39L124.334 694.68L125.044 695.463C125.178 695.61 131.506 702.599 139.181 712.256C144.285 718.964 149.157 725.659 152.743 730.653C156.953 736.92 160.723 743.273 163.257 749.013L157.259 749.637H157.247ZM164.334 748.903C162.914 745.647 161.09 742.195 159.022 738.683C178.679 732.416 195.546 734.374 200.846 735.255C207.015 738.707 211.997 741.632 214.934 743.628L164.334 748.915V748.903Z" fill="url(#paint13_linear_121_13510)"/>
<path d="M88.3971 756.308L83.7582 751.278L101.445 751.008C101.555 750.555 101.665 750.09 101.775 749.637L82.5097 749.931L70.6002 737.018L60.5022 726.063C67.9686 721.143 77.8707 716.834 90.1107 716.247C90.1107 716.247 79.5109 698.082 59.5964 696.369L28.2008 712.905C28.2008 712.905 45.6673 722.465 46.4874 733.689C47.3442 733.921 48.2254 734.142 49.1067 734.313C49.4494 734.374 49.7922 734.435 50.1349 734.496C52.436 732.208 55.3736 729.637 58.8987 727.152L67.8829 737.312C67.993 737.312 68.091 737.287 68.2011 737.275L79.1804 749.992L57.4177 750.323C44.9206 747.312 37.797 744.79 37.797 744.79C37.4175 747.14 37.9071 749.05 38.7762 750.592L20 750.874V752.244L39.6942 751.951C41.9341 754.705 45.2266 755.868 45.2266 755.868L41.9218 760.874L92.9871 766.406C94.1254 764.962 95.2637 763.518 96.4877 762.122C97.7729 760.666 99.1316 759.246 100.625 757.948C96.3653 757.446 92.2772 756.896 88.3726 756.308H88.3971ZM80.3677 751.326L84.0886 755.635C76.1571 754.35 69.0824 752.942 62.9746 751.584L80.3677 751.326ZM63.6478 755.757L60.9673 755.023L61.8608 752.71L64.5414 753.444L63.6478 755.757ZM74.3578 757.752L71.5916 757.3L72.1669 754.913L74.9331 755.366L74.3578 757.752ZM84.7741 759.429L81.9834 759.087L82.424 756.675L85.2147 757.018L84.7741 759.429ZM95.4351 760.825L92.6444 760.482L93.085 758.071L95.8757 758.413L95.4351 760.825Z" fill="url(#paint14_linear_121_13510)"/>
</g>
<path opacity="0.51" d="M260.734 513.18C258.408 510.719 255.177 508.822 251.419 507.794V507.586C251.419 507.586 251.345 507.696 251.296 507.757C249.301 507.219 247.159 506.925 244.944 506.925C244.234 506.925 243.536 506.962 242.851 507.023C242.006 506.117 239.081 503.645 233.597 505.322C233.597 505.322 235.764 506.093 236.878 508.296C234.258 509.226 231.945 510.597 230.085 512.286L222.765 507.243C222.202 510.475 223.573 512.457 224.552 513.424C223.573 514.391 222.202 516.374 222.765 519.606L230.378 514.355C231.247 515.114 232.214 515.799 233.267 516.411C233.267 516.411 233.267 516.411 233.279 516.411C233.548 516.57 233.818 516.717 234.099 516.864C234.124 516.864 234.136 516.888 234.16 516.888C234.173 516.888 234.197 516.901 234.209 516.913C234.479 517.047 234.76 517.194 235.042 517.317C235.054 517.317 235.078 517.329 235.091 517.341C235.115 517.353 235.152 517.366 235.176 517.378C235.446 517.5 235.727 517.623 236.009 517.733C236.033 517.733 236.045 517.745 236.07 517.757C236.119 517.782 236.168 517.794 236.217 517.806C236.474 517.904 236.731 518.002 237 518.1C235.935 520.524 233.585 521.356 233.585 521.356C240.207 523.363 243.096 519.361 243.108 519.336C243.157 519.336 243.218 519.336 243.267 519.336C243.426 519.336 243.573 519.361 243.732 519.373C244.124 519.398 244.528 519.398 244.919 519.398C245.311 519.398 245.715 519.398 246.107 519.373C246.266 519.373 246.413 519.349 246.572 519.336C246.804 519.324 247.037 519.312 247.27 519.287C247.27 519.287 247.27 519.287 247.282 519.287C247.478 519.263 247.673 519.238 247.869 519.214C248.053 519.189 248.236 519.177 248.42 519.153C248.42 519.153 248.432 519.153 248.445 519.153C248.665 519.116 248.885 519.079 249.106 519.043C249.252 519.018 249.399 518.994 249.546 518.969C249.546 518.969 249.571 518.969 249.583 518.969C249.828 518.92 250.06 518.871 250.305 518.81C250.415 518.786 250.538 518.761 250.648 518.737C250.66 518.737 250.672 518.737 250.684 518.737C250.942 518.675 251.199 518.602 251.443 518.529C251.529 518.504 251.627 518.48 251.713 518.455C251.725 518.455 251.749 518.455 251.762 518.443C252.031 518.369 252.3 518.271 252.557 518.186C252.618 518.161 252.692 518.149 252.753 518.125C252.765 518.125 252.79 518.125 252.802 518.112C253.084 518.014 253.353 517.917 253.622 517.806C253.671 517.794 253.72 517.77 253.757 517.757C253.781 517.757 253.793 517.745 253.818 517.733C254.099 517.623 254.369 517.5 254.65 517.378C254.675 517.366 254.711 517.353 254.736 517.341C254.736 517.341 254.736 517.341 254.748 517.341C254.76 517.341 254.785 517.329 254.797 517.317C255.079 517.182 255.36 517.047 255.629 516.913C255.642 516.913 255.654 516.901 255.678 516.888C255.703 516.888 255.715 516.864 255.74 516.852C256.021 516.705 256.29 516.558 256.56 516.399C258.041 515.53 259.363 514.514 260.489 513.351C260.489 513.351 260.55 513.29 260.574 513.265C260.574 513.265 260.636 513.204 260.66 513.18H260.734Z" fill="#083B9B"/>
<path opacity="0.36" d="M294.577 501.527C292.57 499.397 289.779 497.769 286.548 496.876V496.705C286.548 496.705 286.474 496.802 286.438 496.851C284.712 496.386 282.876 496.129 280.954 496.129C280.342 496.129 279.742 496.154 279.155 496.203C278.42 495.419 275.899 493.29 271.174 494.734C271.174 494.734 273.047 495.407 274.002 497.304C271.737 498.112 269.754 499.287 268.151 500.744L261.835 496.386C261.346 499.177 262.533 500.891 263.377 501.723C262.533 502.555 261.346 504.269 261.835 507.06L268.396 502.531C269.155 503.18 269.987 503.779 270.893 504.306C270.893 504.306 270.893 504.306 270.905 504.306C271.138 504.44 271.37 504.575 271.615 504.697C271.627 504.697 271.652 504.709 271.664 504.722C271.676 504.722 271.688 504.734 271.701 504.746C271.933 504.869 272.178 504.979 272.411 505.101C272.423 505.101 272.435 505.113 272.46 505.126C272.484 505.126 272.508 505.15 272.533 505.162C272.766 505.273 273.01 505.37 273.243 505.468C273.255 505.468 273.28 505.481 273.292 505.493C273.329 505.505 273.378 505.53 273.414 505.542C273.635 505.627 273.855 505.713 274.087 505.799C273.169 507.892 271.138 508.614 271.138 508.614C276.841 510.352 279.338 506.888 279.351 506.876C279.4 506.876 279.449 506.876 279.498 506.876C279.632 506.876 279.767 506.9 279.901 506.9C280.244 506.913 280.587 506.925 280.93 506.925C281.272 506.925 281.615 506.925 281.958 506.9C282.092 506.9 282.227 506.876 282.362 506.876C282.558 506.864 282.766 506.852 282.961 506.839C282.961 506.839 282.961 506.839 282.974 506.839C283.145 506.827 283.304 506.803 283.476 506.778C283.635 506.754 283.794 506.741 283.941 506.717C283.941 506.717 283.953 506.717 283.965 506.717C284.161 506.692 284.345 506.656 284.528 506.619C284.651 506.594 284.785 506.582 284.908 506.558H284.932C285.14 506.521 285.348 506.472 285.556 506.423C285.654 506.399 285.752 506.386 285.85 506.362C285.85 506.362 285.875 506.362 285.887 506.362C286.107 506.313 286.327 506.252 286.548 506.191C286.621 506.166 286.707 506.154 286.78 506.129C286.793 506.129 286.805 506.129 286.817 506.129C287.05 506.056 287.282 505.982 287.502 505.909C287.564 505.885 287.613 505.872 287.674 505.86C287.686 505.86 287.711 505.86 287.723 505.848C287.968 505.762 288.2 505.676 288.433 505.579C288.469 505.566 288.518 505.554 288.555 505.53C288.567 505.53 288.592 505.517 288.604 505.505C288.849 505.407 289.081 505.309 289.326 505.199C289.351 505.199 289.375 505.175 289.4 505.162C289.4 505.162 289.4 505.162 289.412 505.162C289.424 505.162 289.436 505.162 289.449 505.15C289.693 505.04 289.926 504.918 290.171 504.795C290.183 504.795 290.195 504.783 290.208 504.771C290.22 504.771 290.244 504.758 290.256 504.746C290.501 504.624 290.734 504.489 290.966 504.355C292.252 503.608 293.39 502.727 294.357 501.723C294.357 501.723 294.406 501.674 294.43 501.649C294.43 501.649 294.479 501.601 294.504 501.576L294.577 501.527Z" fill="#083B9B"/>
<path opacity="0.36" d="M333.648 515.628C331.64 513.498 328.849 511.87 325.618 510.976V510.805C325.618 510.805 325.545 510.903 325.508 510.952C323.782 510.487 321.946 510.23 320.024 510.23C319.412 510.23 318.813 510.254 318.225 510.303C317.491 509.52 314.969 507.39 310.245 508.834C310.245 508.834 312.117 509.508 313.072 511.405C310.808 512.213 308.825 513.388 307.221 514.844L300.906 510.487C300.416 513.277 301.603 514.991 302.448 515.823C301.603 516.656 300.416 518.369 300.906 521.16L307.466 516.631C308.225 517.28 309.057 517.88 309.963 518.406C309.963 518.406 309.963 518.406 309.975 518.406C310.208 518.541 310.44 518.675 310.685 518.798C310.698 518.798 310.722 518.81 310.734 518.822C310.746 518.822 310.759 518.834 310.771 518.847C311.004 518.969 311.248 519.079 311.481 519.202C311.493 519.202 311.505 519.214 311.53 519.226C311.554 519.226 311.579 519.251 311.603 519.263C311.836 519.373 312.081 519.471 312.313 519.569C312.325 519.569 312.35 519.581 312.362 519.593C312.399 519.606 312.448 519.63 312.485 519.642C312.705 519.728 312.925 519.814 313.158 519.899C312.24 521.992 310.208 522.715 310.208 522.715C315.912 524.453 318.409 520.989 318.421 520.976C318.47 520.976 318.519 520.976 318.568 520.976C318.702 520.976 318.837 521.001 318.972 521.001C319.314 521.013 319.657 521.025 320 521.025C320.343 521.025 320.685 521.025 321.028 521.001C321.163 521.001 321.297 520.976 321.432 520.976C321.628 520.964 321.836 520.952 322.032 520.94C322.032 520.94 322.032 520.94 322.044 520.94C322.215 520.927 322.374 520.903 322.546 520.879C322.705 520.854 322.864 520.842 323.011 520.817C323.011 520.817 323.023 520.817 323.035 520.817C323.231 520.793 323.415 520.756 323.598 520.719C323.721 520.695 323.856 520.683 323.978 520.658H324.002C324.21 520.621 324.419 520.573 324.627 520.524C324.725 520.499 324.822 520.487 324.92 520.462C324.92 520.462 324.945 520.462 324.957 520.462C325.177 520.413 325.398 520.352 325.618 520.291C325.692 520.267 325.777 520.254 325.851 520.23C325.863 520.23 325.875 520.23 325.887 520.23C326.12 520.156 326.352 520.083 326.573 520.009C326.634 519.985 326.683 519.973 326.744 519.961C326.756 519.961 326.781 519.961 326.793 519.948C327.038 519.863 327.27 519.777 327.503 519.679C327.54 519.667 327.589 519.655 327.625 519.63C327.638 519.63 327.662 519.618 327.674 519.606C327.919 519.508 328.152 519.41 328.397 519.3C328.421 519.3 328.446 519.275 328.47 519.263C328.47 519.263 328.47 519.263 328.482 519.263C328.495 519.263 328.507 519.263 328.519 519.251C328.764 519.14 328.996 519.018 329.241 518.896C329.253 518.896 329.266 518.883 329.278 518.871C329.29 518.871 329.315 518.859 329.327 518.847C329.572 518.724 329.804 518.59 330.037 518.455C331.322 517.708 332.46 516.827 333.427 515.823C333.427 515.823 333.476 515.774 333.501 515.75C333.501 515.75 333.55 515.701 333.574 515.677L333.648 515.628Z" fill="#083B9B"/>
<path d="M299.401 530.34C296.683 527.464 292.901 525.248 288.519 524.036V523.804C288.519 523.804 288.433 523.926 288.372 524C286.034 523.376 283.538 523.021 280.943 523.021C280.11 523.021 279.302 523.057 278.495 523.131C277.503 522.066 274.088 519.189 267.674 521.136C267.674 521.136 270.208 522.041 271.506 524.612C268.446 525.701 265.741 527.305 263.574 529.275L255.006 523.376C254.345 527.158 255.949 529.471 257.099 530.609C255.961 531.735 254.345 534.061 255.006 537.843L263.905 531.711C264.92 532.604 266.059 533.412 267.283 534.122C267.283 534.122 267.283 534.122 267.295 534.122C267.613 534.306 267.931 534.477 268.25 534.649C268.25 534.649 268.25 534.649 268.262 534.649C268.286 534.649 268.311 534.673 268.335 534.685C268.36 534.685 268.372 534.71 268.397 534.71C268.715 534.869 269.033 535.028 269.364 535.187C269.388 535.187 269.4 535.199 269.425 535.212C269.425 535.212 269.425 535.212 269.437 535.212C269.474 535.224 269.51 535.236 269.547 535.261C269.865 535.407 270.184 535.542 270.514 535.677C270.539 535.677 270.563 535.689 270.588 535.701C270.649 535.726 270.698 535.738 270.759 535.762C271.065 535.885 271.359 535.995 271.677 536.105C270.428 538.933 267.687 539.912 267.687 539.912C275.422 542.262 278.801 537.574 278.825 537.549C278.886 537.549 278.947 537.549 279.021 537.562C279.205 537.562 279.376 537.586 279.559 537.598C280.025 537.623 280.477 537.635 280.955 537.635C281.432 537.635 281.885 537.635 282.35 537.598C282.534 537.598 282.705 537.574 282.889 537.562C283.158 537.549 283.44 537.525 283.709 537.5C283.709 537.5 283.721 537.5 283.733 537.5C283.966 537.476 284.186 537.452 284.419 537.415C284.627 537.39 284.847 537.366 285.055 537.341C285.055 537.341 285.08 537.341 285.092 537.341C285.349 537.305 285.606 537.256 285.863 537.219C286.034 537.194 286.206 537.17 286.377 537.133C286.389 537.133 286.402 537.133 286.414 537.133C286.695 537.084 286.977 537.011 287.258 536.95C287.393 536.925 287.528 536.888 287.662 536.864C287.675 536.864 287.699 536.864 287.711 536.864C288.017 536.791 288.311 536.705 288.605 536.631C288.715 536.607 288.813 536.582 288.923 536.546C288.935 536.546 288.96 536.546 288.984 536.534C289.303 536.436 289.609 536.338 289.915 536.24C289.988 536.215 290.074 536.191 290.147 536.166C290.172 536.166 290.184 536.154 290.208 536.142C290.539 536.032 290.845 535.909 291.163 535.787C291.212 535.762 291.273 535.75 291.322 535.726C291.347 535.726 291.371 535.713 291.396 535.701C291.726 535.567 292.044 535.432 292.363 535.285C292.399 535.273 292.436 535.261 292.473 535.236C292.473 535.236 292.473 535.236 292.485 535.236C292.509 535.236 292.522 535.224 292.546 535.212C292.877 535.065 293.195 534.893 293.513 534.734C293.525 534.734 293.55 534.722 293.562 534.71C293.587 534.698 293.611 534.685 293.635 534.673C293.966 534.502 294.284 534.318 294.59 534.147C294.59 534.147 294.59 534.147 294.602 534.147C296.341 533.131 297.883 531.931 299.192 530.585C299.192 530.585 299.266 530.511 299.29 530.487C299.29 530.487 299.364 530.414 299.401 530.377V530.34Z" fill="#083B9B"/>
<path opacity="0.67" d="M90.549 346.863C87.8317 343.986 84.0495 341.771 79.6676 340.559V340.326C79.6676 340.326 79.5819 340.449 79.5207 340.522C77.1829 339.898 74.6859 339.543 72.0911 339.543C71.2587 339.543 70.4509 339.58 69.6431 339.653C68.6516 338.6 65.2367 335.712 58.8229 337.658C58.8229 337.658 61.3566 338.564 62.654 341.134C59.594 342.224 56.889 343.827 54.7225 345.798L46.1545 339.898C45.4935 343.68 47.097 345.993 48.2475 347.132C47.1092 348.258 45.4935 350.583 46.1545 354.366L55.053 348.233C56.0689 349.127 57.2072 349.935 58.4312 350.645C58.4312 350.645 58.4312 350.645 58.4435 350.645C58.7617 350.828 59.0799 351 59.3982 351.171C59.3982 351.171 59.3982 351.171 59.4104 351.171C59.4349 351.171 59.4594 351.195 59.4839 351.208C59.5083 351.208 59.5206 351.232 59.5451 351.232C59.8633 351.391 60.1815 351.55 60.512 351.71C60.5365 351.71 60.5487 351.722 60.5732 351.734C60.5732 351.734 60.5732 351.734 60.5855 351.734C60.6222 351.746 60.6589 351.758 60.6956 351.783C61.0139 351.93 61.3321 352.064 61.6626 352.199C61.6871 352.199 61.7115 352.211 61.736 352.224C61.7972 352.248 61.8462 352.26 61.9074 352.285C62.2134 352.407 62.5071 352.517 62.8254 352.628C61.5769 355.455 58.8351 356.434 58.8351 356.434C66.5708 358.784 69.9491 354.096 69.9735 354.072C70.0347 354.072 70.0959 354.072 70.1694 354.084C70.353 354.084 70.5243 354.109 70.7079 354.121C71.1731 354.145 71.6259 354.158 72.1033 354.158C72.5807 354.158 73.0335 354.158 73.4987 354.121C73.6823 354.121 73.8536 354.096 74.0372 354.084C74.3065 354.072 74.588 354.047 74.8573 354.023C74.8573 354.023 74.8695 354.023 74.8818 354.023C75.1143 353.998 75.3347 353.974 75.5672 353.937C75.7753 353.913 75.9956 353.888 76.2037 353.864C76.2037 353.864 76.2282 353.864 76.2404 353.864C76.4975 353.827 76.7545 353.778 77.0115 353.741C77.1829 353.717 77.3543 353.692 77.5256 353.656C77.5379 353.656 77.5501 353.656 77.5623 353.656C77.8439 353.607 78.1254 353.533 78.4069 353.472C78.5415 353.448 78.6762 353.411 78.8108 353.386C78.8231 353.386 78.8475 353.386 78.8598 353.386C79.1658 353.313 79.4595 353.227 79.7533 353.154C79.8635 353.129 79.9614 353.105 80.0715 353.068C80.0838 353.068 80.1083 353.068 80.1327 353.056C80.451 352.958 80.757 352.86 81.063 352.762C81.1364 352.738 81.2221 352.713 81.2955 352.689C81.32 352.689 81.3323 352.677 81.3567 352.664C81.6872 352.554 81.9932 352.432 82.3115 352.309C82.3604 352.285 82.4216 352.273 82.4706 352.248C82.4951 352.248 82.5195 352.236 82.544 352.224C82.8745 352.089 83.1927 351.954 83.511 351.807C83.5477 351.795 83.5844 351.783 83.6211 351.759C83.6211 351.759 83.6211 351.759 83.6334 351.759C83.6579 351.759 83.6701 351.746 83.6946 351.734C84.0251 351.587 84.3433 351.416 84.6615 351.257C84.6738 351.257 84.6983 351.244 84.7105 351.232C84.735 351.22 84.7595 351.208 84.7839 351.195C85.1144 351.024 85.4327 350.84 85.7387 350.669C85.7387 350.669 85.7387 350.669 85.7509 350.669C87.489 349.653 89.0312 348.454 90.3409 347.107C90.3776 347.071 90.4143 347.034 90.4388 347.009C90.4388 347.009 90.5123 346.936 90.549 346.899V346.863Z" fill="#083B9B"/>
<path opacity="0.56" d="M360.723 476.607C358.226 473.963 354.749 471.931 350.722 470.817V470.597C350.722 470.597 350.637 470.707 350.588 470.78C348.446 470.205 346.145 469.887 343.758 469.887C342.999 469.887 342.252 469.923 341.506 469.985C340.6 469.018 337.454 466.362 331.567 468.149C331.567 468.149 333.892 468.981 335.092 471.343C332.277 472.347 329.804 473.816 327.797 475.627L319.927 470.205C319.315 473.681 320.796 475.811 321.848 476.851C320.796 477.892 319.327 480.021 319.927 483.498L328.103 477.867C329.045 478.687 330.074 479.422 331.2 480.083C331.2 480.083 331.2 480.083 331.212 480.083C331.506 480.254 331.787 480.413 332.093 480.572C332.093 480.572 332.093 480.572 332.105 480.572C332.13 480.572 332.142 480.597 332.167 480.609C332.179 480.609 332.203 480.621 332.216 480.633C332.509 480.78 332.803 480.927 333.109 481.074C333.134 481.074 333.146 481.086 333.17 481.099C333.17 481.099 333.17 481.099 333.183 481.099C333.219 481.111 333.244 481.123 333.28 481.135C333.574 481.27 333.868 481.392 334.174 481.515C334.198 481.515 334.211 481.527 334.235 481.539C334.284 481.564 334.333 481.576 334.394 481.6C334.676 481.711 334.945 481.821 335.239 481.919C334.1 484.514 331.567 485.419 331.567 485.419C338.678 487.586 341.775 483.277 341.799 483.253C341.861 483.253 341.922 483.253 341.971 483.265C342.142 483.265 342.301 483.29 342.473 483.302C342.901 483.326 343.317 483.326 343.746 483.326C344.174 483.326 344.602 483.326 345.019 483.302C345.19 483.302 345.349 483.277 345.52 483.265C345.765 483.253 346.022 483.241 346.267 483.216C346.267 483.216 346.279 483.216 346.292 483.216C346.5 483.192 346.708 483.167 346.916 483.143C347.112 483.118 347.307 483.106 347.503 483.069H347.528C347.76 483.033 348.005 482.996 348.238 482.947C348.397 482.922 348.556 482.898 348.715 482.873C348.727 482.873 348.74 482.873 348.752 482.873C349.009 482.824 349.266 482.763 349.523 482.702C349.645 482.678 349.768 482.653 349.89 482.616C349.902 482.616 349.915 482.616 349.939 482.616C350.221 482.555 350.49 482.469 350.759 482.396C350.857 482.372 350.955 482.347 351.053 482.323C351.065 482.323 351.09 482.323 351.102 482.31C351.396 482.225 351.677 482.127 351.959 482.041C352.032 482.017 352.106 481.992 352.167 481.968C352.191 481.968 352.203 481.955 352.228 481.943C352.522 481.845 352.815 481.723 353.109 481.613C353.158 481.588 353.207 481.576 353.256 481.551C353.281 481.551 353.293 481.539 353.317 481.527C353.623 481.405 353.917 481.282 354.211 481.148C354.248 481.135 354.272 481.123 354.309 481.111C354.309 481.111 354.309 481.111 354.321 481.111C354.333 481.111 354.358 481.099 354.37 481.086C354.676 480.952 354.97 480.805 355.263 480.646C355.276 480.646 355.3 480.633 355.312 480.621C355.337 480.621 355.361 480.597 355.374 480.585C355.68 480.425 355.961 480.266 356.255 480.095C356.255 480.095 356.255 480.095 356.267 480.095C357.858 479.165 359.278 478.063 360.49 476.827C360.49 476.827 360.551 476.766 360.588 476.729C360.588 476.729 360.649 476.668 360.686 476.631L360.723 476.607Z" fill="#083B9B"/>
</g>
<defs>
<linearGradient id="paint0_linear_121_13510" x1="201" y1="0" x2="201" y2="874" gradientUnits="userSpaceOnUse">
<stop stop-color="#5FAAFF"/>
<stop offset="1" stop-color="#0F2750"/>
</linearGradient>
<linearGradient id="paint1_linear_121_13510" x1="177.899" y1="794.225" x2="177.899" y2="913.251" gradientUnits="userSpaceOnUse">
<stop stop-color="#0275F9" stop-opacity="0.95"/>
<stop offset="0.25" stop-color="#0275F9" stop-opacity="0.95"/>
<stop offset="0.27" stop-color="#027CF5" stop-opacity="0.9025"/>
<stop offset="0.33" stop-color="#0296E8" stop-opacity="0.9025"/>
<stop offset="0.41" stop-color="#02AADD" stop-opacity="0.9025"/>
<stop offset="0.5" stop-color="#02B9D6" stop-opacity="0.9025"/>
<stop offset="0.61" stop-color="#02C1D2" stop-opacity="0.9025"/>
<stop offset="0.82" stop-color="#02C4D1" stop-opacity="0.95"/>
</linearGradient>
<radialGradient id="paint2_radial_121_13510" cx="0" cy="0" r="1" gradientUnits="userSpaceOnUse" gradientTransform="translate(173.769 823.094) scale(181.641 10.8984)">
<stop stop-color="white" stop-opacity="0.95"/>
<stop offset="1" stop-color="white" stop-opacity="0.1"/>
</radialGradient>
<linearGradient id="paint3_linear_121_13510" x1="266.588" y1="791.654" x2="261.222" y2="970.956" gradientUnits="userSpaceOnUse">
<stop stop-color="#5B94BD"/>
<stop offset="0.03" stop-color="#558BB2"/>
<stop offset="0.15" stop-color="#3F6683"/>
<stop offset="0.28" stop-color="#2B475A"/>
<stop offset="0.41" stop-color="#1B2D39"/>
<stop offset="0.55" stop-color="#0F1920"/>
<stop offset="0.69" stop-color="#060B0E"/>
<stop offset="0.83" stop-color="#010203"/>
<stop offset="1"/>
</linearGradient>
<linearGradient id="paint4_linear_121_13510" x1="-4.76237" y1="845.66" x2="-3.41056" y2="780.972" gradientUnits="userSpaceOnUse">
<stop stop-color="#3136BE"/>
<stop offset="1" stop-color="white"/>
</linearGradient>
<linearGradient id="paint5_linear_121_13510" x1="6.79868" y1="772.264" x2="3.83796" y2="812.81" gradientUnits="userSpaceOnUse">
<stop stop-color="#5B94BD"/>
<stop offset="0.03" stop-color="#558BB2"/>
<stop offset="0.15" stop-color="#3F6683"/>
<stop offset="0.28" stop-color="#2B475A"/>
<stop offset="0.41" stop-color="#1B2D39"/>
<stop offset="0.55" stop-color="#0F1920"/>
<stop offset="0.69" stop-color="#060B0E"/>
<stop offset="0.83" stop-color="#010203"/>
<stop offset="1"/>
</linearGradient>
<linearGradient id="paint6_linear_121_13510" x1="460.289" y1="793.794" x2="458.652" y2="807.316" gradientUnits="userSpaceOnUse">
<stop stop-color="#3136BE"/>
<stop offset="1" stop-color="white"/>
</linearGradient>
<linearGradient id="paint7_linear_121_13510" x1="347.978" y1="851.383" x2="346.626" y2="786.686" gradientUnits="userSpaceOnUse">
<stop stop-color="#3136BE"/>
<stop offset="1" stop-color="white"/>
</linearGradient>
<linearGradient id="paint8_linear_121_13510" x1="370.072" y1="840.842" x2="369.068" y2="792.857" gradientUnits="userSpaceOnUse">
<stop stop-color="#3136BE"/>
<stop offset="1" stop-color="white"/>
</linearGradient>
<linearGradient id="paint9_linear_121_13510" x1="444.256" y1="744.888" x2="475.92" y2="839.258" gradientUnits="userSpaceOnUse">
<stop stop-color="#5B94BD"/>
<stop offset="0.03" stop-color="#558BB2"/>
<stop offset="0.15" stop-color="#3F6683"/>
<stop offset="0.28" stop-color="#2B475A"/>
<stop offset="0.41" stop-color="#1B2D39"/>
<stop offset="0.55" stop-color="#0F1920"/>
<stop offset="0.69" stop-color="#060B0E"/>
<stop offset="0.83" stop-color="#010203"/>
<stop offset="1"/>
</linearGradient>
<linearGradient id="paint10_linear_121_13510" x1="336.417" y1="777.987" x2="339.377" y2="818.524" gradientUnits="userSpaceOnUse">
<stop stop-color="#5B94BD"/>
<stop offset="0.03" stop-color="#558BB2"/>
<stop offset="0.15" stop-color="#3F6683"/>
<stop offset="0.28" stop-color="#2B475A"/>
<stop offset="0.41" stop-color="#1B2D39"/>
<stop offset="0.55" stop-color="#0F1920"/>
<stop offset="0.69" stop-color="#060B0E"/>
<stop offset="0.83" stop-color="#010203"/>
<stop offset="1"/>
</linearGradient>
<linearGradient id="paint11_linear_121_13510" x1="376.59" y1="771.087" x2="380.223" y2="820.863" gradientUnits="userSpaceOnUse">
<stop stop-color="#5B94BD"/>
<stop offset="0.03" stop-color="#558BB2"/>
<stop offset="0.15" stop-color="#3F6683"/>
<stop offset="0.28" stop-color="#2B475A"/>
<stop offset="0.41" stop-color="#1B2D39"/>
<stop offset="0.55" stop-color="#0F1920"/>
<stop offset="0.69" stop-color="#060B0E"/>
<stop offset="0.83" stop-color="#010203"/>
<stop offset="1"/>
</linearGradient>
<linearGradient id="paint12_linear_121_13510" x1="424.509" y1="783.013" x2="422.908" y2="841.597" gradientUnits="userSpaceOnUse">
<stop stop-color="#5B94BD"/>
<stop offset="0.03" stop-color="#558BB2"/>
<stop offset="0.15" stop-color="#3F6683"/>
<stop offset="0.28" stop-color="#2B475A"/>
<stop offset="0.41" stop-color="#1B2D39"/>
<stop offset="0.55" stop-color="#0F1920"/>
<stop offset="0.69" stop-color="#060B0E"/>
<stop offset="0.83" stop-color="#010203"/>
<stop offset="1"/>
</linearGradient>
<linearGradient id="paint13_linear_121_13510" x1="154.223" y1="652.995" x2="154.961" y2="758.699" gradientUnits="userSpaceOnUse">
<stop stop-color="#052869"/>
<stop offset="0.17" stop-color="#052869" stop-opacity="0.9025"/>
<stop offset="0.38" stop-color="#052869" stop-opacity="0.64"/>
<stop offset="0.61" stop-color="#05286A" stop-opacity="0.3136"/>
<stop offset="0.86" stop-color="#05296B" stop-opacity="0.0484"/>
<stop offset="1" stop-color="#052A6C" stop-opacity="0"/>
</linearGradient>
<linearGradient id="paint14_linear_121_13510" x1="67.2718" y1="653.602" x2="68.0098" y2="759.306" gradientUnits="userSpaceOnUse">
<stop stop-color="#052869"/>
<stop offset="0.17" stop-color="#052869" stop-opacity="0.9025"/>
<stop offset="0.38" stop-color="#052869" stop-opacity="0.64"/>
<stop offset="0.61" stop-color="#05286A" stop-opacity="0.3136"/>
<stop offset="0.86" stop-color="#05296B" stop-opacity="0.0484"/>
<stop offset="1" stop-color="#052A6C" stop-opacity="0"/>
</linearGradient>
<clipPath id="clip0_121_13510">
<rect width="402" height="874" fill="white"/>
</clipPath>
</defs>
</svg>
